<mxfile host="Electron" agent="Mozilla/5.0 (Windows NT 10.0; Win64; x64) AppleWebKit/537.36 (KHTML, like Gecko) draw.io/28.0.6 Chrome/138.0.7204.100 Electron/37.2.3 Safari/537.36" version="28.0.6">
  <diagram name="Page-1" id="H1pxpioLFWpcdsdU6G3K">
    <mxGraphModel dx="1426" dy="841" grid="1" gridSize="10" guides="1" tooltips="1" connect="1" arrows="1" fold="1" page="1" pageScale="1" pageWidth="827" pageHeight="1169" math="0" shadow="0">
      <root>
        <mxCell id="0" />
        <mxCell id="1" parent="0" />
        <mxCell id="FkaB7pMoUgSEwbK_Tr6z-16" value="" style="rounded=0;whiteSpace=wrap;html=1;strokeColor=none;" vertex="1" parent="1">
          <mxGeometry x="30" y="20" width="510" height="620" as="geometry" />
        </mxCell>
        <mxCell id="FkaB7pMoUgSEwbK_Tr6z-2" value="" style="rounded=0;whiteSpace=wrap;html=1;fillColor=#f5f5f5;fontColor=#333333;strokeColor=#666666;" vertex="1" parent="1">
          <mxGeometry x="40" y="30" width="280" height="330" as="geometry" />
        </mxCell>
        <mxCell id="FkaB7pMoUgSEwbK_Tr6z-1" value="" style="rounded=0;whiteSpace=wrap;html=1;fillColor=#f5f5f5;fontColor=#333333;strokeColor=#666666;" vertex="1" parent="1">
          <mxGeometry x="40" y="400" width="280" height="120" as="geometry" />
        </mxCell>
        <mxCell id="o5KgLBfoHT-n4_DA_3Cd-1" value="Host Device" style="shape=umlFrame;whiteSpace=wrap;html=1;pointerEvents=0;fontStyle=1;fontSize=13;" parent="1" vertex="1">
          <mxGeometry x="40" y="30" width="280" height="330" as="geometry" />
        </mxCell>
        <mxCell id="o5KgLBfoHT-n4_DA_3Cd-4" value="User Profile" style="ellipse;whiteSpace=wrap;html=1;fontSize=18;" parent="1" vertex="1">
          <mxGeometry x="404" y="190" width="120" height="80" as="geometry" />
        </mxCell>
        <mxCell id="FkaB7pMoUgSEwbK_Tr6z-6" style="edgeStyle=orthogonalEdgeStyle;rounded=0;orthogonalLoop=1;jettySize=auto;html=1;exitX=0.25;exitY=1;exitDx=0;exitDy=0;entryX=0.25;entryY=0;entryDx=0;entryDy=0;" edge="1" parent="1" source="o5KgLBfoHT-n4_DA_3Cd-6" target="FkaB7pMoUgSEwbK_Tr6z-3">
          <mxGeometry relative="1" as="geometry" />
        </mxCell>
        <mxCell id="FkaB7pMoUgSEwbK_Tr6z-15" style="edgeStyle=orthogonalEdgeStyle;rounded=0;orthogonalLoop=1;jettySize=auto;html=1;exitX=0.75;exitY=0;exitDx=0;exitDy=0;entryX=0.75;entryY=1;entryDx=0;entryDy=0;" edge="1" parent="1" source="o5KgLBfoHT-n4_DA_3Cd-6" target="FkaB7pMoUgSEwbK_Tr6z-13">
          <mxGeometry relative="1" as="geometry" />
        </mxCell>
        <mxCell id="o5KgLBfoHT-n4_DA_3Cd-6" value="ARFoundation" style="html=1;dropTarget=0;whiteSpace=wrap;fontSize=18;fillColor=#fff2cc;strokeColor=#d6b656;" parent="1" vertex="1">
          <mxGeometry x="100" y="130" width="180" height="50" as="geometry" />
        </mxCell>
        <mxCell id="o5KgLBfoHT-n4_DA_3Cd-7" value="" style="shape=module;jettyWidth=8;jettyHeight=4;" parent="o5KgLBfoHT-n4_DA_3Cd-6" vertex="1">
          <mxGeometry x="1" width="20" height="20" relative="1" as="geometry">
            <mxPoint x="-27" y="7" as="offset" />
          </mxGeometry>
        </mxCell>
        <mxCell id="o5KgLBfoHT-n4_DA_3Cd-27" style="edgeStyle=orthogonalEdgeStyle;rounded=0;orthogonalLoop=1;jettySize=auto;html=1;exitX=0.5;exitY=1;exitDx=0;exitDy=0;entryX=0.5;entryY=0;entryDx=0;entryDy=0;" parent="1" source="o5KgLBfoHT-n4_DA_3Cd-10" target="o5KgLBfoHT-n4_DA_3Cd-19" edge="1">
          <mxGeometry relative="1" as="geometry" />
        </mxCell>
        <mxCell id="o5KgLBfoHT-n4_DA_3Cd-31" value="State Updates" style="edgeLabel;html=1;align=center;verticalAlign=middle;resizable=0;points=[];fontSize=16;labelBackgroundColor=none;" parent="o5KgLBfoHT-n4_DA_3Cd-27" vertex="1" connectable="0">
          <mxGeometry x="-0.1091" y="-1" relative="1" as="geometry">
            <mxPoint x="61" y="5" as="offset" />
          </mxGeometry>
        </mxCell>
        <mxCell id="FkaB7pMoUgSEwbK_Tr6z-5" style="edgeStyle=orthogonalEdgeStyle;rounded=0;orthogonalLoop=1;jettySize=auto;html=1;exitX=0.75;exitY=0;exitDx=0;exitDy=0;entryX=0.75;entryY=1;entryDx=0;entryDy=0;" edge="1" parent="1" source="o5KgLBfoHT-n4_DA_3Cd-10" target="FkaB7pMoUgSEwbK_Tr6z-3">
          <mxGeometry relative="1" as="geometry" />
        </mxCell>
        <mxCell id="o5KgLBfoHT-n4_DA_3Cd-10" value="Shared AR" style="html=1;dropTarget=0;whiteSpace=wrap;fillColor=#fff2cc;strokeColor=#d6b656;fontSize=18;" parent="1" vertex="1">
          <mxGeometry x="100" y="280" width="180" height="50" as="geometry" />
        </mxCell>
        <mxCell id="o5KgLBfoHT-n4_DA_3Cd-11" value="" style="shape=module;jettyWidth=8;jettyHeight=4;" parent="o5KgLBfoHT-n4_DA_3Cd-10" vertex="1">
          <mxGeometry x="1" width="20" height="20" relative="1" as="geometry">
            <mxPoint x="-27" y="7" as="offset" />
          </mxGeometry>
        </mxCell>
        <mxCell id="o5KgLBfoHT-n4_DA_3Cd-17" value="Lightship Server" style="shape=umlFrame;whiteSpace=wrap;html=1;pointerEvents=0;fontStyle=1;fontSize=13;" parent="1" vertex="1">
          <mxGeometry x="40" y="400" width="280" height="120" as="geometry" />
        </mxCell>
        <mxCell id="o5KgLBfoHT-n4_DA_3Cd-23" style="rounded=0;orthogonalLoop=1;jettySize=auto;html=1;exitX=1;exitY=0.5;exitDx=0;exitDy=0;entryX=0;entryY=0.5;entryDx=0;entryDy=0;" parent="1" source="o5KgLBfoHT-n4_DA_3Cd-19" target="o5KgLBfoHT-n4_DA_3Cd-20" edge="1">
          <mxGeometry relative="1" as="geometry" />
        </mxCell>
        <mxCell id="o5KgLBfoHT-n4_DA_3Cd-30" style="rounded=0;orthogonalLoop=1;jettySize=auto;html=1;exitX=1;exitY=0.5;exitDx=0;exitDy=0;entryX=0;entryY=0.5;entryDx=0;entryDy=0;" parent="1" source="o5KgLBfoHT-n4_DA_3Cd-19" target="o5KgLBfoHT-n4_DA_3Cd-29" edge="1">
          <mxGeometry relative="1" as="geometry" />
        </mxCell>
        <mxCell id="o5KgLBfoHT-n4_DA_3Cd-19" value="Room" style="rounded=0;whiteSpace=wrap;html=1;fillColor=#dae8fc;strokeColor=#6c8ebf;fontSize=18;" parent="1" vertex="1">
          <mxGeometry x="120" y="430" width="140" height="60" as="geometry" />
        </mxCell>
        <mxCell id="o5KgLBfoHT-n4_DA_3Cd-20" value="Room ID" style="ellipse;whiteSpace=wrap;html=1;fontSize=18;" parent="1" vertex="1">
          <mxGeometry x="404" y="390" width="120" height="80" as="geometry" />
        </mxCell>
        <mxCell id="o5KgLBfoHT-n4_DA_3Cd-22" value="Client Device" style="rounded=0;whiteSpace=wrap;html=1;fontSize=18;fillColor=#f5f5f5;fontColor=#333333;strokeColor=#666666;" parent="1" vertex="1">
          <mxGeometry x="40" y="570" width="280" height="60" as="geometry" />
        </mxCell>
        <mxCell id="o5KgLBfoHT-n4_DA_3Cd-29" value="Origin and Anchors" style="ellipse;whiteSpace=wrap;html=1;fontSize=18;" parent="1" vertex="1">
          <mxGeometry x="404" y="490" width="120" height="80" as="geometry" />
        </mxCell>
        <mxCell id="o5KgLBfoHT-n4_DA_3Cd-34" value="Room Configuration" style="ellipse;whiteSpace=wrap;html=1;fontSize=18;" parent="1" vertex="1">
          <mxGeometry x="404" y="90" width="120" height="80" as="geometry" />
        </mxCell>
        <mxCell id="o5KgLBfoHT-n4_DA_3Cd-37" value="Application ID" style="ellipse;whiteSpace=wrap;html=1;fontSize=18;" parent="1" vertex="1">
          <mxGeometry x="404" y="290" width="120" height="80" as="geometry" />
        </mxCell>
        <mxCell id="FkaB7pMoUgSEwbK_Tr6z-4" style="edgeStyle=orthogonalEdgeStyle;rounded=0;orthogonalLoop=1;jettySize=auto;html=1;exitX=0.25;exitY=1;exitDx=0;exitDy=0;entryX=0.25;entryY=0;entryDx=0;entryDy=0;" edge="1" parent="1" source="FkaB7pMoUgSEwbK_Tr6z-3" target="o5KgLBfoHT-n4_DA_3Cd-10">
          <mxGeometry relative="1" as="geometry" />
        </mxCell>
        <mxCell id="FkaB7pMoUgSEwbK_Tr6z-7" style="edgeStyle=orthogonalEdgeStyle;rounded=0;orthogonalLoop=1;jettySize=auto;html=1;exitX=0.75;exitY=0;exitDx=0;exitDy=0;entryX=0.75;entryY=1;entryDx=0;entryDy=0;" edge="1" parent="1" source="FkaB7pMoUgSEwbK_Tr6z-3" target="o5KgLBfoHT-n4_DA_3Cd-6">
          <mxGeometry relative="1" as="geometry" />
        </mxCell>
        <mxCell id="FkaB7pMoUgSEwbK_Tr6z-8" style="rounded=0;orthogonalLoop=1;jettySize=auto;html=1;exitX=1;exitY=0.5;exitDx=0;exitDy=0;entryX=0;entryY=0.5;entryDx=0;entryDy=0;" edge="1" parent="1" source="FkaB7pMoUgSEwbK_Tr6z-3" target="o5KgLBfoHT-n4_DA_3Cd-34">
          <mxGeometry relative="1" as="geometry" />
        </mxCell>
        <mxCell id="FkaB7pMoUgSEwbK_Tr6z-9" style="rounded=0;orthogonalLoop=1;jettySize=auto;html=1;exitX=1;exitY=0.5;exitDx=0;exitDy=0;entryX=0;entryY=0.5;entryDx=0;entryDy=0;" edge="1" parent="1" source="FkaB7pMoUgSEwbK_Tr6z-3" target="o5KgLBfoHT-n4_DA_3Cd-4">
          <mxGeometry relative="1" as="geometry" />
        </mxCell>
        <mxCell id="FkaB7pMoUgSEwbK_Tr6z-10" style="rounded=0;orthogonalLoop=1;jettySize=auto;html=1;exitX=1;exitY=0.5;exitDx=0;exitDy=0;entryX=0;entryY=0.5;entryDx=0;entryDy=0;" edge="1" parent="1" source="FkaB7pMoUgSEwbK_Tr6z-3" target="o5KgLBfoHT-n4_DA_3Cd-37">
          <mxGeometry relative="1" as="geometry" />
        </mxCell>
        <mxCell id="FkaB7pMoUgSEwbK_Tr6z-3" value="CollabAR Core" style="html=1;whiteSpace=wrap;fontSize=18;fillColor=#dae8fc;strokeColor=#6c8ebf;" vertex="1" parent="1">
          <mxGeometry x="100" y="205" width="180" height="45" as="geometry" />
        </mxCell>
        <mxCell id="FkaB7pMoUgSEwbK_Tr6z-11" style="edgeStyle=orthogonalEdgeStyle;rounded=0;orthogonalLoop=1;jettySize=auto;html=1;exitX=0.5;exitY=1;exitDx=0;exitDy=0;entryX=0.539;entryY=0;entryDx=0;entryDy=0;entryPerimeter=0;startArrow=classic;startFill=1;endArrow=none;endFill=0;" edge="1" parent="1" source="o5KgLBfoHT-n4_DA_3Cd-19" target="o5KgLBfoHT-n4_DA_3Cd-22">
          <mxGeometry relative="1" as="geometry" />
        </mxCell>
        <mxCell id="FkaB7pMoUgSEwbK_Tr6z-12" value="Inputs" style="edgeLabel;html=1;align=center;verticalAlign=middle;resizable=0;points=[];fontSize=16;labelBackgroundColor=none;" vertex="1" connectable="0" parent="FkaB7pMoUgSEwbK_Tr6z-11">
          <mxGeometry x="0.3078" relative="1" as="geometry">
            <mxPoint x="29" as="offset" />
          </mxGeometry>
        </mxCell>
        <mxCell id="FkaB7pMoUgSEwbK_Tr6z-14" style="edgeStyle=orthogonalEdgeStyle;rounded=0;orthogonalLoop=1;jettySize=auto;html=1;exitX=0.25;exitY=1;exitDx=0;exitDy=0;entryX=0.25;entryY=0;entryDx=0;entryDy=0;" edge="1" parent="1" source="FkaB7pMoUgSEwbK_Tr6z-13" target="o5KgLBfoHT-n4_DA_3Cd-6">
          <mxGeometry relative="1" as="geometry" />
        </mxCell>
        <mxCell id="FkaB7pMoUgSEwbK_Tr6z-13" value="Device Core" style="html=1;whiteSpace=wrap;fontSize=18;fillColor=#dae8fc;strokeColor=#6c8ebf;" vertex="1" parent="1">
          <mxGeometry x="100" y="60" width="180" height="45" as="geometry" />
        </mxCell>
      </root>
    </mxGraphModel>
  </diagram>
</mxfile>
